<svg xmlns="http://www.w3.org/2000/svg" xmlns:xlink="http://www.w3.org/1999/xlink" width="128" zoomAndPan="magnify" viewBox="0 0 96 36.000001" height="48" preserveAspectRatio="xMidYMid meet" version="1.0"><defs><g/></defs><g fill="#000000" fill-opacity="1"><g transform="translate(12.339171, 24.773111)"><g><path d="M 15.78125 -10.875 C 15.78125 -10.132812 15.59375 -9.425781 15.21875 -8.75 C 14.851562 -8.082031 14.359375 -7.492188 13.734375 -6.984375 C 13.109375 -6.484375 12.375 -6.082031 11.53125 -5.78125 C 10.695312 -5.488281 9.804688 -5.34375 8.859375 -5.34375 C 8.523438 -5.34375 8.257812 -5.382812 8.0625 -5.46875 C 7.863281 -5.5625 7.644531 -5.738281 7.40625 -6 C 6.738281 -4.53125 6.191406 -3.175781 5.765625 -1.9375 C 5.335938 -0.707031 5.003906 0.484375 4.765625 1.640625 C 4.253906 1.515625 3.835938 1.300781 3.515625 1 C 3.191406 0.695312 2.894531 0.316406 2.625 -0.140625 C 2.757812 -0.398438 2.921875 -0.738281 3.109375 -1.15625 C 3.296875 -1.570312 3.523438 -2.082031 3.796875 -2.6875 C 4.066406 -3.300781 4.378906 -4.035156 4.734375 -4.890625 C 5.085938 -5.742188 5.507812 -6.742188 6 -7.890625 C 6.207031 -8.421875 6.390625 -8.878906 6.546875 -9.265625 C 6.710938 -9.648438 6.859375 -10.015625 6.984375 -10.359375 C 7.109375 -10.703125 7.21875 -11.039062 7.3125 -11.375 C 7.414062 -11.71875 7.519531 -12.09375 7.625 -12.5 C 7 -12.289062 6.421875 -12.050781 5.890625 -11.78125 C 5.359375 -11.519531 4.914062 -11.238281 4.5625 -10.9375 C 4.4375 -11.019531 4.3125 -11.140625 4.1875 -11.296875 C 4.0625 -11.460938 3.941406 -11.640625 3.828125 -11.828125 C 3.722656 -12.023438 3.628906 -12.222656 3.546875 -12.421875 C 3.472656 -12.628906 3.425781 -12.816406 3.40625 -12.984375 C 3.800781 -13.253906 4.285156 -13.503906 4.859375 -13.734375 C 5.441406 -13.960938 6.0625 -14.160156 6.71875 -14.328125 C 7.382812 -14.492188 8.066406 -14.625 8.765625 -14.71875 C 9.472656 -14.8125 10.148438 -14.859375 10.796875 -14.859375 C 11.566406 -14.859375 12.257812 -14.757812 12.875 -14.5625 C 13.5 -14.363281 14.023438 -14.085938 14.453125 -13.734375 C 14.878906 -13.390625 15.207031 -12.972656 15.4375 -12.484375 C 15.664062 -12.003906 15.78125 -11.46875 15.78125 -10.875 Z M 12.1875 -13.296875 C 11.675781 -13.296875 11.15625 -13.257812 10.625 -13.1875 L 10.859375 -12.8125 C 10.722656 -12.644531 10.550781 -12.382812 10.34375 -12.03125 C 10.144531 -11.675781 9.925781 -11.253906 9.6875 -10.765625 C 9.445312 -10.273438 9.179688 -9.726562 8.890625 -9.125 C 8.597656 -8.519531 8.289062 -7.878906 7.96875 -7.203125 C 9.019531 -7.203125 9.972656 -7.300781 10.828125 -7.5 C 11.691406 -7.695312 12.429688 -7.96875 13.046875 -8.3125 C 13.660156 -8.65625 14.140625 -9.050781 14.484375 -9.5 C 14.828125 -9.957031 15 -10.453125 15 -10.984375 C 15 -11.679688 14.765625 -12.238281 14.296875 -12.65625 C 13.828125 -13.082031 13.125 -13.296875 12.1875 -13.296875 Z M 12.1875 -13.296875 "/></g></g></g><g fill="#000000" fill-opacity="1"><g transform="translate(25.295435, 24.773111)"><g><path d="M 4.34375 0.703125 C 3.570312 0.617188 2.957031 0.285156 2.5 -0.296875 C 2.039062 -0.890625 1.8125 -1.644531 1.8125 -2.5625 C 1.8125 -3.101562 1.890625 -3.660156 2.046875 -4.234375 C 2.210938 -4.816406 2.441406 -5.378906 2.734375 -5.921875 C 3.035156 -6.472656 3.390625 -6.988281 3.796875 -7.46875 C 4.203125 -7.957031 4.640625 -8.375 5.109375 -8.71875 C 5.847656 -9.269531 6.539062 -9.546875 7.1875 -9.546875 C 7.613281 -9.316406 8.035156 -8.835938 8.453125 -8.109375 C 8.523438 -8.109375 8.585938 -8.113281 8.640625 -8.125 C 8.691406 -8.132812 8.753906 -8.140625 8.828125 -8.140625 C 9.535156 -8.140625 9.890625 -7.503906 9.890625 -6.234375 C 9.890625 -5.390625 9.75 -4.585938 9.46875 -3.828125 C 9.195312 -3.066406 8.816406 -2.375 8.328125 -1.75 C 7.835938 -1.132812 7.25 -0.613281 6.5625 -0.1875 C 5.882812 0.226562 5.144531 0.523438 4.34375 0.703125 Z M 5.375 -5.65625 C 5.144531 -5.34375 4.925781 -5.003906 4.71875 -4.640625 C 4.519531 -4.273438 4.347656 -3.90625 4.203125 -3.53125 C 4.054688 -3.164062 3.941406 -2.8125 3.859375 -2.46875 C 3.773438 -2.125 3.734375 -1.816406 3.734375 -1.546875 C 3.734375 -1.222656 3.785156 -0.914062 3.890625 -0.625 C 4.003906 -0.332031 4.128906 -0.164062 4.265625 -0.125 C 4.867188 -0.257812 5.421875 -0.507812 5.921875 -0.875 C 6.429688 -1.25 6.867188 -1.710938 7.234375 -2.265625 C 7.609375 -2.816406 7.898438 -3.441406 8.109375 -4.140625 C 8.316406 -4.835938 8.421875 -5.582031 8.421875 -6.375 C 8.421875 -6.726562 8.398438 -7.003906 8.359375 -7.203125 C 8.316406 -7.410156 8.25 -7.585938 8.15625 -7.734375 C 7.5625 -7.554688 7.03125 -7.269531 6.5625 -6.875 C 6.101562 -6.488281 5.707031 -6.082031 5.375 -5.65625 Z M 5.375 -5.65625 "/></g></g></g><g fill="#000000" fill-opacity="1"><g transform="translate(34.195299, 24.773111)"><g><path d="M 1.46875 -0.40625 C 1.539062 -0.789062 1.660156 -1.300781 1.828125 -1.9375 C 1.992188 -2.582031 2.191406 -3.265625 2.421875 -3.984375 C 2.648438 -4.703125 2.890625 -5.425781 3.140625 -6.15625 C 3.398438 -6.882812 3.648438 -7.535156 3.890625 -8.109375 C 4.066406 -8.523438 4.222656 -8.851562 4.359375 -9.09375 C 4.492188 -9.332031 4.640625 -9.53125 4.796875 -9.6875 C 4.992188 -9.664062 5.191406 -9.617188 5.390625 -9.546875 C 5.585938 -9.484375 5.78125 -9.40625 5.96875 -9.3125 C 6.164062 -9.21875 6.335938 -9.117188 6.484375 -9.015625 C 6.628906 -8.910156 6.742188 -8.8125 6.828125 -8.71875 C 6.460938 -8.289062 6.140625 -7.800781 5.859375 -7.25 C 5.585938 -6.695312 5.3125 -5.988281 5.03125 -5.125 C 5.75 -5.769531 6.390625 -6.390625 6.953125 -6.984375 C 7.515625 -7.578125 8.035156 -8.238281 8.515625 -8.96875 C 8.597656 -9.03125 8.738281 -9.0625 8.9375 -9.0625 C 9.125 -9.0625 9.304688 -9.03125 9.484375 -8.96875 C 9.660156 -8.90625 9.78125 -8.820312 9.84375 -8.71875 C 9.601562 -8.070312 9.484375 -7.429688 9.484375 -6.796875 C 9.484375 -6.210938 9.570312 -5.769531 9.75 -5.46875 C 9.738281 -5.382812 9.644531 -5.226562 9.46875 -5 C 9.300781 -4.769531 9.117188 -4.554688 8.921875 -4.359375 C 8.554688 -4.546875 8.234375 -4.800781 7.953125 -5.125 C 7.671875 -5.457031 7.460938 -5.820312 7.328125 -6.21875 C 6.691406 -5.769531 6.148438 -5.332031 5.703125 -4.90625 C 5.265625 -4.488281 4.882812 -4.019531 4.5625 -3.5 C 4.25 -2.976562 3.984375 -2.378906 3.765625 -1.703125 C 3.546875 -1.035156 3.332031 -0.238281 3.125 0.6875 C 3.007812 0.675781 2.863281 0.628906 2.6875 0.546875 C 2.519531 0.472656 2.351562 0.382812 2.1875 0.28125 C 2.019531 0.175781 1.867188 0.0625 1.734375 -0.0625 C 1.597656 -0.1875 1.507812 -0.300781 1.46875 -0.40625 Z M 1.46875 -0.40625 "/></g></g></g><g fill="#000000" fill-opacity="1"><g transform="translate(42.328282, 24.773111)"><g><path d="M 3.15625 -7.734375 C 3.082031 -7.816406 3.019531 -7.988281 2.96875 -8.25 C 2.914062 -8.507812 2.890625 -8.734375 2.890625 -8.921875 C 3.234375 -8.890625 3.566406 -8.863281 3.890625 -8.84375 C 4.210938 -8.832031 4.507812 -8.816406 4.78125 -8.796875 C 4.988281 -9.203125 5.207031 -9.601562 5.4375 -10 C 5.675781 -10.394531 5.90625 -10.757812 6.125 -11.09375 C 6.34375 -11.425781 6.550781 -11.707031 6.75 -11.9375 C 6.945312 -12.164062 7.097656 -12.3125 7.203125 -12.375 C 7.335938 -12.375 7.507812 -12.347656 7.71875 -12.296875 C 7.925781 -12.253906 8.140625 -12.195312 8.359375 -12.125 C 8.578125 -12.050781 8.769531 -11.972656 8.9375 -11.890625 C 9.113281 -11.804688 9.238281 -11.722656 9.3125 -11.640625 C 8.90625 -11.128906 8.554688 -10.65625 8.265625 -10.21875 C 7.972656 -9.78125 7.660156 -9.28125 7.328125 -8.71875 C 7.597656 -8.71875 7.867188 -8.722656 8.140625 -8.734375 C 8.421875 -8.753906 8.703125 -8.773438 8.984375 -8.796875 C 9.046875 -8.734375 9.097656 -8.648438 9.140625 -8.546875 C 9.179688 -8.441406 9.203125 -8.335938 9.203125 -8.234375 C 8.546875 -7.992188 7.742188 -7.859375 6.796875 -7.828125 C 6.460938 -7.179688 6.164062 -6.539062 5.90625 -5.90625 C 5.644531 -5.269531 5.421875 -4.65625 5.234375 -4.0625 C 5.054688 -3.46875 4.914062 -2.90625 4.8125 -2.375 C 4.707031 -1.851562 4.65625 -1.382812 4.65625 -0.96875 C 4.65625 -0.375 4.878906 -0.046875 5.328125 0.015625 C 5.734375 -0.0351562 6.117188 -0.132812 6.484375 -0.28125 C 6.847656 -0.425781 7.171875 -0.613281 7.453125 -0.84375 C 7.535156 -0.726562 7.582031 -0.628906 7.59375 -0.546875 C 7.507812 -0.421875 7.367188 -0.273438 7.171875 -0.109375 C 6.984375 0.046875 6.773438 0.195312 6.546875 0.34375 C 6.316406 0.5 6.09375 0.628906 5.875 0.734375 C 5.65625 0.847656 5.492188 0.910156 5.390625 0.921875 C 5.054688 0.910156 4.71875 0.835938 4.375 0.703125 C 4.039062 0.566406 3.734375 0.398438 3.453125 0.203125 C 3.179688 0.00390625 2.957031 -0.21875 2.78125 -0.46875 C 2.613281 -0.71875 2.53125 -0.96875 2.53125 -1.21875 C 2.53125 -1.539062 2.570312 -1.945312 2.65625 -2.4375 C 2.738281 -2.925781 2.859375 -3.457031 3.015625 -4.03125 C 3.179688 -4.613281 3.375 -5.21875 3.59375 -5.84375 C 3.8125 -6.476562 4.046875 -7.109375 4.296875 -7.734375 Z M 3.15625 -7.734375 "/></g></g></g><g fill="#000000" fill-opacity="1"><g transform="translate(49.432027, 24.773111)"><g><path d="M 3.0625 5.828125 C 2.726562 5.691406 2.53125 5.4375 2.46875 5.0625 C 2.40625 4.695312 2.175781 4.398438 1.78125 4.171875 C 1.882812 3.492188 2.003906 2.800781 2.140625 2.09375 C 2.273438 1.394531 2.445312 0.597656 2.65625 -0.296875 C 2.863281 -1.191406 3.125 -2.234375 3.4375 -3.421875 C 3.757812 -4.609375 4.160156 -6.050781 4.640625 -7.75 C 4.203125 -7.75 3.851562 -7.742188 3.59375 -7.734375 C 3.332031 -7.722656 3.082031 -7.695312 2.84375 -7.65625 C 2.789062 -7.707031 2.75 -7.78125 2.71875 -7.875 C 2.6875 -7.96875 2.671875 -8.054688 2.671875 -8.140625 C 2.796875 -8.191406 3.066406 -8.257812 3.484375 -8.34375 C 3.910156 -8.4375 4.367188 -8.515625 4.859375 -8.578125 C 5.179688 -9.597656 5.550781 -10.515625 5.96875 -11.328125 C 6.382812 -12.148438 6.835938 -12.847656 7.328125 -13.421875 C 7.816406 -14.003906 8.328125 -14.445312 8.859375 -14.75 C 9.398438 -15.0625 9.945312 -15.21875 10.5 -15.21875 C 10.65625 -15.21875 10.804688 -15.207031 10.953125 -15.1875 C 11.109375 -15.164062 11.226562 -15.15625 11.3125 -15.15625 C 11.425781 -15.25 11.582031 -15.332031 11.78125 -15.40625 C 11.988281 -15.488281 12.164062 -15.53125 12.3125 -15.53125 C 12.476562 -15.53125 12.6875 -15.441406 12.9375 -15.265625 C 12.832031 -15.078125 12.71875 -14.820312 12.59375 -14.5 C 12.476562 -14.175781 12.378906 -13.859375 12.296875 -13.546875 C 11.960938 -12.546875 11.601562 -11.898438 11.21875 -11.609375 C 11.070312 -11.609375 10.992188 -11.800781 10.984375 -12.1875 C 10.972656 -12.476562 10.929688 -12.753906 10.859375 -13.015625 C 10.804688 -13.140625 10.769531 -13.25 10.75 -13.34375 C 10.726562 -13.4375 10.71875 -13.554688 10.71875 -13.703125 C 10.71875 -13.785156 10.722656 -13.882812 10.734375 -14 C 10.753906 -14.113281 10.785156 -14.304688 10.828125 -14.578125 C 10.597656 -14.578125 10.34375 -14.4375 10.0625 -14.15625 C 9.789062 -13.875 9.5 -13.472656 9.1875 -12.953125 C 8.882812 -12.429688 8.578125 -11.8125 8.265625 -11.09375 C 7.960938 -10.382812 7.671875 -9.597656 7.390625 -8.734375 L 9.078125 -8.796875 C 9.148438 -8.734375 9.207031 -8.582031 9.25 -8.34375 C 9.300781 -8.113281 9.332031 -7.867188 9.34375 -7.609375 L 7.125 -7.734375 C 6.613281 -6.210938 6.132812 -4.757812 5.6875 -3.375 C 5.25 -1.988281 4.851562 -0.710938 4.5 0.453125 C 4.15625 1.628906 3.859375 2.675781 3.609375 3.59375 C 3.359375 4.519531 3.175781 5.265625 3.0625 5.828125 Z M 3.0625 5.828125 "/></g></g></g><g fill="#000000" fill-opacity="1"><g transform="translate(56.333963, 24.773111)"><g><path d="M 4.34375 0.703125 C 3.570312 0.617188 2.957031 0.285156 2.5 -0.296875 C 2.039062 -0.890625 1.8125 -1.644531 1.8125 -2.5625 C 1.8125 -3.101562 1.890625 -3.660156 2.046875 -4.234375 C 2.210938 -4.816406 2.441406 -5.378906 2.734375 -5.921875 C 3.035156 -6.472656 3.390625 -6.988281 3.796875 -7.46875 C 4.203125 -7.957031 4.640625 -8.375 5.109375 -8.71875 C 5.847656 -9.269531 6.539062 -9.546875 7.1875 -9.546875 C 7.613281 -9.316406 8.035156 -8.835938 8.453125 -8.109375 C 8.523438 -8.109375 8.585938 -8.113281 8.640625 -8.125 C 8.691406 -8.132812 8.753906 -8.140625 8.828125 -8.140625 C 9.535156 -8.140625 9.890625 -7.503906 9.890625 -6.234375 C 9.890625 -5.390625 9.75 -4.585938 9.46875 -3.828125 C 9.195312 -3.066406 8.816406 -2.375 8.328125 -1.75 C 7.835938 -1.132812 7.25 -0.613281 6.5625 -0.1875 C 5.882812 0.226562 5.144531 0.523438 4.34375 0.703125 Z M 5.375 -5.65625 C 5.144531 -5.34375 4.925781 -5.003906 4.71875 -4.640625 C 4.519531 -4.273438 4.347656 -3.90625 4.203125 -3.53125 C 4.054688 -3.164062 3.941406 -2.8125 3.859375 -2.46875 C 3.773438 -2.125 3.734375 -1.816406 3.734375 -1.546875 C 3.734375 -1.222656 3.785156 -0.914062 3.890625 -0.625 C 4.003906 -0.332031 4.128906 -0.164062 4.265625 -0.125 C 4.867188 -0.257812 5.421875 -0.507812 5.921875 -0.875 C 6.429688 -1.25 6.867188 -1.710938 7.234375 -2.265625 C 7.609375 -2.816406 7.898438 -3.441406 8.109375 -4.140625 C 8.316406 -4.835938 8.421875 -5.582031 8.421875 -6.375 C 8.421875 -6.726562 8.398438 -7.003906 8.359375 -7.203125 C 8.316406 -7.410156 8.25 -7.585938 8.15625 -7.734375 C 7.5625 -7.554688 7.03125 -7.269531 6.5625 -6.875 C 6.101562 -6.488281 5.707031 -6.082031 5.375 -5.65625 Z M 5.375 -5.65625 "/></g></g></g><g fill="#000000" fill-opacity="1"><g transform="translate(65.233827, 24.773111)"><g><path d="M 1.9375 -1.296875 C 1.9375 -1.890625 2.078125 -2.71875 2.359375 -3.78125 C 2.640625 -4.851562 3.035156 -6.101562 3.546875 -7.53125 C 4.378906 -9.800781 5.160156 -11.691406 5.890625 -13.203125 C 6.628906 -14.722656 7.351562 -15.90625 8.0625 -16.75 C 8.21875 -16.726562 8.410156 -16.660156 8.640625 -16.546875 C 8.878906 -16.441406 9.113281 -16.328125 9.34375 -16.203125 C 9.570312 -16.078125 9.773438 -15.945312 9.953125 -15.8125 C 10.140625 -15.675781 10.257812 -15.566406 10.3125 -15.484375 C 9.257812 -14.242188 8.335938 -12.910156 7.546875 -11.484375 C 6.753906 -10.054688 6.03125 -8.421875 5.375 -6.578125 C 4.800781 -4.992188 4.367188 -3.566406 4.078125 -2.296875 C 3.785156 -1.023438 3.640625 0.0351562 3.640625 0.890625 C 3.640625 1.117188 3.640625 1.257812 3.640625 1.3125 C 3.640625 1.363281 3.644531 1.414062 3.65625 1.46875 C 3.46875 1.445312 3.304688 1.398438 3.171875 1.328125 C 3.035156 1.265625 2.945312 1.1875 2.90625 1.09375 C 2.875 1.019531 2.796875 0.921875 2.671875 0.796875 C 2.554688 0.671875 2.453125 0.570312 2.359375 0.5 C 2.242188 0.425781 2.144531 0.21875 2.0625 -0.125 C 1.976562 -0.46875 1.9375 -0.859375 1.9375 -1.296875 Z M 1.9375 -1.296875 "/></g></g></g><g fill="#000000" fill-opacity="1"><g transform="translate(69.996565, 24.773111)"><g><path d="M 1.984375 -1.359375 C 1.984375 -1.472656 1.988281 -1.617188 2 -1.796875 C 2.019531 -1.984375 2.054688 -2.226562 2.109375 -2.53125 C 2.171875 -2.832031 2.242188 -3.195312 2.328125 -3.625 C 2.421875 -4.0625 2.535156 -4.582031 2.671875 -5.1875 C 2.691406 -5.320312 2.75 -5.535156 2.84375 -5.828125 C 2.9375 -6.128906 3.0625 -6.441406 3.21875 -6.765625 C 3.375 -7.097656 3.5625 -7.421875 3.78125 -7.734375 C 4.007812 -8.046875 4.273438 -8.273438 4.578125 -8.421875 C 4.804688 -8.367188 5.109375 -8.226562 5.484375 -8 C 5.867188 -7.78125 6.191406 -7.472656 6.453125 -7.078125 C 6.148438 -6.734375 5.894531 -6.382812 5.6875 -6.03125 C 5.476562 -5.6875 5.285156 -5.320312 5.109375 -4.9375 C 4.941406 -4.5625 4.785156 -4.171875 4.640625 -3.765625 C 4.503906 -3.367188 4.347656 -2.945312 4.171875 -2.5 C 4.023438 -2.125 3.890625 -1.738281 3.765625 -1.34375 C 3.648438 -0.945312 3.585938 -0.597656 3.578125 -0.296875 C 3.578125 -0.0546875 3.570312 0.109375 3.5625 0.203125 C 3.550781 0.304688 3.515625 0.359375 3.453125 0.359375 C 3.398438 0.359375 3.289062 0.320312 3.125 0.25 C 2.96875 0.1875 2.800781 0.0859375 2.625 -0.046875 C 2.457031 -0.191406 2.304688 -0.367188 2.171875 -0.578125 C 2.046875 -0.796875 1.984375 -1.054688 1.984375 -1.359375 Z M 5.828125 -10.109375 C 5.828125 -10.191406 5.847656 -10.316406 5.890625 -10.484375 C 5.828125 -10.546875 5.769531 -10.644531 5.71875 -10.78125 C 5.675781 -10.914062 5.65625 -11.035156 5.65625 -11.140625 C 5.65625 -11.265625 5.671875 -11.429688 5.703125 -11.640625 C 5.734375 -11.847656 5.773438 -12.070312 5.828125 -12.3125 C 5.890625 -12.550781 5.957031 -12.800781 6.03125 -13.0625 C 6.113281 -13.332031 6.195312 -13.570312 6.28125 -13.78125 C 6.4375 -13.78125 6.632812 -13.738281 6.875 -13.65625 C 7.113281 -13.570312 7.351562 -13.457031 7.59375 -13.3125 C 7.832031 -13.175781 8.050781 -13.019531 8.25 -12.84375 C 8.457031 -12.675781 8.613281 -12.519531 8.71875 -12.375 C 8.570312 -12.226562 8.375 -12.019531 8.125 -11.75 C 7.882812 -11.488281 7.648438 -11.210938 7.421875 -10.921875 C 7.191406 -10.640625 6.984375 -10.367188 6.796875 -10.109375 C 6.609375 -9.859375 6.488281 -9.675781 6.4375 -9.5625 C 6.28125 -9.59375 6.140625 -9.664062 6.015625 -9.78125 C 5.890625 -9.894531 5.828125 -10.003906 5.828125 -10.109375 Z M 5.828125 -10.109375 "/></g></g></g><g fill="#000000" fill-opacity="1"><g transform="translate(74.759302, 24.773111)"><g><path d="M 4.34375 0.703125 C 3.570312 0.617188 2.957031 0.285156 2.5 -0.296875 C 2.039062 -0.890625 1.8125 -1.644531 1.8125 -2.5625 C 1.8125 -3.101562 1.890625 -3.660156 2.046875 -4.234375 C 2.210938 -4.816406 2.441406 -5.378906 2.734375 -5.921875 C 3.035156 -6.472656 3.390625 -6.988281 3.796875 -7.46875 C 4.203125 -7.957031 4.640625 -8.375 5.109375 -8.71875 C 5.847656 -9.269531 6.539062 -9.546875 7.1875 -9.546875 C 7.613281 -9.316406 8.035156 -8.835938 8.453125 -8.109375 C 8.523438 -8.109375 8.585938 -8.113281 8.640625 -8.125 C 8.691406 -8.132812 8.753906 -8.140625 8.828125 -8.140625 C 9.535156 -8.140625 9.890625 -7.503906 9.890625 -6.234375 C 9.890625 -5.390625 9.75 -4.585938 9.46875 -3.828125 C 9.195312 -3.066406 8.816406 -2.375 8.328125 -1.75 C 7.835938 -1.132812 7.25 -0.613281 6.5625 -0.1875 C 5.882812 0.226562 5.144531 0.523438 4.34375 0.703125 Z M 5.375 -5.65625 C 5.144531 -5.34375 4.925781 -5.003906 4.71875 -4.640625 C 4.519531 -4.273438 4.347656 -3.90625 4.203125 -3.53125 C 4.054688 -3.164062 3.941406 -2.8125 3.859375 -2.46875 C 3.773438 -2.125 3.734375 -1.816406 3.734375 -1.546875 C 3.734375 -1.222656 3.785156 -0.914062 3.890625 -0.625 C 4.003906 -0.332031 4.128906 -0.164062 4.265625 -0.125 C 4.867188 -0.257812 5.421875 -0.507812 5.921875 -0.875 C 6.429688 -1.25 6.867188 -1.710938 7.234375 -2.265625 C 7.609375 -2.816406 7.898438 -3.441406 8.109375 -4.140625 C 8.316406 -4.835938 8.421875 -5.582031 8.421875 -6.375 C 8.421875 -6.726562 8.398438 -7.003906 8.359375 -7.203125 C 8.316406 -7.410156 8.25 -7.585938 8.15625 -7.734375 C 7.5625 -7.554688 7.03125 -7.269531 6.5625 -6.875 C 6.101562 -6.488281 5.707031 -6.082031 5.375 -5.65625 Z M 5.375 -5.65625 "/></g></g></g></svg>