<?xml version="1.0" encoding="UTF-8"?>
<!DOCTYPE svg PUBLIC "-//W3C//DTD SVG 1.1//EN" "http://www.w3.org/Graphics/SVG/1.1/DTD/svg11.dtd">
<svg xmlns="http://www.w3.org/2000/svg" version="1.1" width="225px" height="225px" style="shape-rendering:geometricPrecision; text-rendering:geometricPrecision; image-rendering:optimizeQuality; fill-rule:evenodd; clip-rule:evenodd" xmlns:xlink="http://www.w3.org/1999/xlink">
<g><path style="opacity:1" fill="#fefefe" d="M -0.5,-0.5 C 36.1667,-0.5 72.8333,-0.5 109.5,-0.5C 78.0174,17.1631 46.8507,35.4964 16,54.5C 15.3333,55.8333 14.6667,57.1667 14,58.5C 13.8333,76.6667 13.6667,94.8333 13.5,113C 13.3452,131.921 13.8452,150.754 15,169.5C 18.2216,172.388 21.7216,174.888 25.5,177C 53.5551,192.355 81.2218,208.188 108.5,224.5C 72.1667,224.5 35.8333,224.5 -0.5,224.5C -0.5,149.5 -0.5,74.5 -0.5,-0.5 Z"/></g>
<g><path style="opacity:1" fill="#05599c" d="M 109.5,-0.5 C 111.167,-0.5 112.833,-0.5 114.5,-0.5C 145.98,16.8278 177.147,34.8278 208,53.5C 209.155,72.4127 209.655,91.4127 209.5,110.5C 209.333,128.833 209.167,147.167 209,165.5C 208.529,167.246 207.862,168.913 207,170.5C 176.147,189.172 144.98,207.172 113.5,224.5C 111.833,224.5 110.167,224.5 108.5,224.5C 81.2218,208.188 53.5551,192.355 25.5,177C 21.7216,174.888 18.2216,172.388 15,169.5C 13.8452,150.754 13.3452,131.921 13.5,113C 13.6667,94.8333 13.8333,76.6667 14,58.5C 14.6667,57.1667 15.3333,55.8333 16,54.5C 46.8507,35.4964 78.0174,17.1631 109.5,-0.5 Z"/></g>
<g><path style="opacity:1" fill="#fdfefe" d="M 114.5,-0.5 C 151.167,-0.5 187.833,-0.5 224.5,-0.5C 224.5,74.5 224.5,149.5 224.5,224.5C 187.5,224.5 150.5,224.5 113.5,224.5C 144.98,207.172 176.147,189.172 207,170.5C 207.862,168.913 208.529,167.246 209,165.5C 209.167,147.167 209.333,128.833 209.5,110.5C 209.655,91.4127 209.155,72.4127 208,53.5C 177.147,34.8278 145.98,16.8278 114.5,-0.5 Z"/></g>
<g><path style="opacity:1" fill="#fcfdfd" d="M 98.5,40.5 C 131.177,37.0091 156.51,48.8424 174.5,76C 167.162,81.0044 159.496,85.5044 151.5,89.5C 132.659,64.9824 109.992,60.8158 83.5,77C 64.6525,95.9881 62.4858,116.821 77,139.5C 95.2067,158.561 115.707,161.395 138.5,148C 143.043,143.625 147.376,139.125 151.5,134.5C 158.75,138.708 165.916,143.041 173,147.5C 173.667,148.5 173.667,149.5 173,150.5C 154.994,176.625 130.16,187.458 98.5,183C 67.5607,175.061 48.3941,155.561 41,124.5C 37.616,80.9043 56.7827,52.9043 98.5,40.5 Z"/></g>
</svg>
