<svg xmlns="http://www.w3.org/2000/svg" version="1.1" xmlns:xlink="http://www.w3.org/1999/xlink" width="512" height="512" x="0" y="0" viewBox="0 0 512 512" style="enable-background:new 0 0 512 512" xml:space="preserve" class=""><g><path fill="#6c27b3" fill-rule="evenodd" d="M49.281 384.521h193.3v45.286l-4.525 2.293a39.891 39.891 0 1 0 35.889 0l-4.523-2.294v-45.285H462.7A49.356 49.356 0 0 0 512 335.24V53.7a49.353 49.353 0 0 0-49.3-49.293H49.281A49.34 49.34 0 0 0 0 53.7v281.54a49.343 49.343 0 0 0 49.281 49.281zM269 227.6l33.133-33.142L269 161.332a13.42 13.42 0 0 1 18.98-18.977l33.132 33.124 33.141-33.123a13.42 13.42 0 1 1 18.982 18.976l-33.144 33.126 33.143 33.142a13.421 13.421 0 0 1-18.98 18.979l-33.142-33.142-33.134 33.143A13.42 13.42 0 1 1 269 227.6zm-134.164-27.417V151.8a13.417 13.417 0 0 1 26.834 0v48.387a23.524 23.524 0 1 0 47.048 0V151.8a13.421 13.421 0 0 1 26.841 0v48.387a50.362 50.362 0 1 1-100.723 0z" opacity="1" data-original="#6c27b3" class=""></path></g></svg>